# xmcd CD database file
#
# Track frame offsets:
#	180
#	10040
#	22145
#	35379
#	48746
#	59021
#	71394
#	84402
#	97159
#	108853
#	124007
#	136988
#	149467
#	162879
#	172261
#	184901
#	198064
#	212457
#	224237
#	237239
#	250322
#	262772
#	274934
#	288495
#	302524
#	313013
#
# Disc length: 4359 seconds
#
# Revision: 0
# Processed by: cddbd v1.5.2PL0 Copyright (c) Steve Scherf et al.
# Submitted via: CDex 1.51
#
DISCID=8711051a
DTITLE=Country Trail - CD 6
DYEAR=1900
DGENRE=Country
TTITLE0=Hank Williams - Honky Tonk Blues
TTITLE1=Merle Travis - No Vacancy
TTITLE2=Hank Penny - Penny blows his Top
TTITLE3=Tex Williams - I got Texas in my Soul
TTITLE4=Bob Wills - Liza pull down the Shades
TTITLE5=Jimmie Widener - I´ll be Satisfied
TTITLE6=Roy Acuff - Great spreckled Bird
TTITLE7=Johnnie Lee Wills - Milk Cow Blues
TTITLE8=Bob Wills - Roly Poly
TTITLE9=Jimmy Rodgers - In the Jailhous noe No.1
TTITLE10=Sons of the Pioneers - Cigareets Whusky
TTITLE11=Richard Prine - Adams Appel
TTITLE12=T.Texas Tyler - My Bucket´s got a Hole in it
TTITLE13=Johnny Bond - So long to the red River Valley
TTITLE14=Littel Jimmy Dickens - Take and old Cold´tater
TTITLE15=Johnny Bond - Birmingham Jail
TTITLE16=G.B.Grayson - Omie Wise
TTITLE17=Gene Autry - Back in the Saddel again
TTITLE18=Spade Cooley - Shame on you
TTITLE19=Red Woodward - Cowboy Boogie
TTITLE20=Bob Wills - Brain cloudy Blues
TTITLE21=Eddie Miller - Don´t break my Heart
TTITLE22=Stuart Hamblen - Remember my
TTITLE23=Tommy Duncyn - Gamblin Polkadot Blues
TTITLE24=Andy Schroder - Prairie Dog Rambel
TTITLE25=Woody Guthrie - Dust Bowl Refugee
EXTD=
EXTT0=
EXTT1=
EXTT2=
EXTT3=
EXTT4=
EXTT5=
EXTT6=
EXTT7=
EXTT8=
EXTT9=
EXTT10=
EXTT11=
EXTT12=
EXTT13=
EXTT14=
EXTT15=
EXTT16=
EXTT17=
EXTT18=
EXTT19=
EXTT20=
EXTT21=
EXTT22=
EXTT23=
EXTT24=
EXTT25=
PLAYORDER=
